<svg width="68" height="13" viewBox="0 0 68 13" fill="none" xmlns="http://www.w3.org/2000/svg">
<path d="M6.112 2.976V12H3.616V2.976H0.448V0.815999H9.28V2.976H6.112ZM18.0544 0.815999H20.5504V12H18.0544V7.6H13.6064V12H11.1104V0.815999H13.6064V5.488H18.0544V0.815999ZM31.3619 0.815999V3.04H25.7939V5.344H30.8019V7.472H25.7939V9.792H31.5379V12H23.2979V0.815999H31.3619ZM41.9374 0.815999C43.932 0.815999 45.4627 1.30667 46.5294 2.288C47.596 3.25867 48.1294 4.61333 48.1294 6.352C48.1294 8.09067 47.6067 9.46667 46.5614 10.48C45.5267 11.4933 43.9427 12 41.8094 12H37.9854V0.815999H41.9374ZM42.0654 9.792C43.2067 9.792 44.0814 9.504 44.6894 8.928C45.308 8.352 45.6174 7.51467 45.6174 6.416C45.6174 5.31733 45.308 4.47467 44.6894 3.888C44.0814 3.29067 43.1427 2.992 41.8734 2.992H40.4814V9.792H42.0654ZM55.1783 12H50.2823V0.815999H54.6343C55.3916 0.815999 56.0423 0.906666 56.5863 1.088C57.1409 1.26933 57.5569 1.51467 57.8343 1.824C58.3356 2.4 58.5863 3.05067 58.5863 3.776C58.5863 4.65067 58.3036 5.30133 57.7383 5.728C57.5463 5.87733 57.4129 5.97333 57.3383 6.016C57.2636 6.048 57.1303 6.10667 56.9383 6.192C57.6316 6.34133 58.1809 6.656 58.5863 7.136C59.0023 7.60533 59.2103 8.192 59.2103 8.896C59.2103 9.67467 58.9436 10.3627 58.4103 10.96C57.7916 11.6533 56.7143 12 55.1783 12ZM52.7783 5.344H53.9623C54.6556 5.344 55.1676 5.26933 55.4983 5.12C55.8396 4.97067 56.0103 4.65067 56.0103 4.16C56.0103 3.65867 55.8556 3.328 55.5463 3.168C55.2369 3.008 54.7143 2.928 53.9783 2.928H52.7783V5.344ZM52.7783 9.888H54.4903C55.2049 9.888 55.7383 9.80267 56.0903 9.632C56.4529 9.45067 56.6343 9.104 56.6343 8.592C56.6343 8.06933 56.4423 7.728 56.0583 7.568C55.6849 7.39733 55.0823 7.312 54.2503 7.312H52.7783V9.888ZM61.5889 2.96V0.815999H67.4129V8.112C67.4129 9.44533 67.0662 10.4427 66.3729 11.104C65.6902 11.7653 64.8102 12.096 63.7329 12.096C62.3889 12.096 61.2155 11.5787 60.2129 10.544L61.5089 8.752C62.1809 9.47733 62.8849 9.84 63.6209 9.84C63.9729 9.84 64.2715 9.70667 64.5169 9.44C64.7729 9.16267 64.9009 8.752 64.9009 8.208V2.96H61.5889Z" fill="black"/>
</svg>
