<svg width="30" height="30" viewBox="0 0 30 30" fill="none" xmlns="http://www.w3.org/2000/svg">
<rect width="30" height="30" rx="15" fill="#2F9761" fill-opacity="0.2"/>
<path d="M10.424 10.7645C10.6133 10.7645 10.7669 10.611 10.7669 10.4216C10.7669 10.2322 10.6133 10.0787 10.424 10.0787C10.2346 10.0787 10.0811 10.2322 10.0811 10.4216C10.0811 10.611 10.2346 10.7645 10.424 10.7645Z" fill="#2F9761"/>
<path d="M7 10.4222C7 12.3082 8.53623 13.8444 10.4222 13.8444C11.739 13.8444 12.8877 13.0969 13.4569 12.003C13.865 12.5791 14.0844 13.2683 14.0844 13.9884V19.8418C14.0844 20.6237 14.3862 21.3541 14.9383 21.9061C15.4869 22.4582 16.2173 22.76 17.0026 22.76C18.6142 22.76 19.9241 21.4535 19.9241 19.8418V19.7287H20.6031C20.7917 19.7287 20.946 19.5778 20.946 19.3858V18.7651C22.1804 18.0073 23 16.2448 23 14.3005C23 12.3562 22.1804 10.5937 20.946 9.83241V9.21518C20.946 9.02659 20.7917 8.87227 20.6031 8.87227H18.5559C18.3639 8.87227 18.213 9.02659 18.213 9.21518V9.83241C16.9751 10.5937 16.159 12.3562 16.159 14.3005C16.159 16.2448 16.9751 18.0073 18.213 18.7651V19.3858C18.213 19.5778 18.3639 19.7287 18.5559 19.7287H19.2383V19.8418C19.2383 21.0729 18.2336 22.0742 17.0026 22.0742C16.4025 22.0742 15.8436 21.8444 15.4252 21.4226C15.0034 21.0009 14.7703 20.4385 14.7703 19.8418V13.9884C14.7703 12.9734 14.4033 12.0099 13.7415 11.2555C13.8135 10.988 13.8478 10.7102 13.8478 10.4222C13.8478 8.5328 12.3116 7 10.4222 7C8.53623 7 7 8.5328 7 10.4222ZM18.2165 14.3005C18.2165 14.4925 18.0621 14.6434 17.8736 14.6434C17.6815 14.6434 17.5306 14.4925 17.5306 14.3005C17.5306 12.5276 18.3056 11.3206 19.0257 10.9469C19.1972 10.8611 19.4029 10.9263 19.4886 11.0943C19.5778 11.2623 19.5092 11.4681 19.3412 11.5572C18.796 11.8384 18.2165 12.898 18.2165 14.3005ZM10.0793 9.45522V8.27562C10.0793 8.08703 10.2336 7.93271 10.4222 7.93271C10.6142 7.93271 10.7651 8.08703 10.7651 8.27562V9.45522C11.1663 9.59923 11.4509 9.97642 11.4509 10.4222C11.4509 10.988 10.9914 11.4509 10.4222 11.4509C9.85641 11.4509 9.3935 10.988 9.3935 10.4222C9.3935 9.97642 9.68153 9.59923 10.0793 9.45522Z" fill="#2F9761"/>
</svg>
