<svg width="30" height="30" viewBox="0 0 30 30" fill="none" xmlns="http://www.w3.org/2000/svg">
<rect width="30" height="30" rx="15" fill="#2F6F97" fill-opacity="0.2"/>
<path fill-rule="evenodd" clip-rule="evenodd" d="M14.848 8.1836V8.84181C14.5442 8.28486 14.1392 7.72791 13.886 7.37349L13.6835 7.0697L13.4303 7.37349C13.2278 7.67728 12.8227 8.1836 12.5696 8.68992V8.13297C12.5696 6.61401 14.848 6.61401 14.848 8.1836ZM14.9493 9.90508C14.9493 9.19623 13.6835 7.57602 13.6835 7.57602C13.6835 7.57602 12.3671 9.19623 12.3671 9.90508C12.3671 11.5759 14.9493 11.5759 14.9493 9.90508ZM12.9746 9.65192C13.1772 9.65192 13.2278 10.1076 13.1265 10.2595C13.0759 10.462 12.8734 10.462 12.8227 10.2595C12.7215 10.057 12.7721 9.65192 12.9746 9.65192ZM14.848 10.9683V13.905C14.848 12.386 17.1771 12.3354 17.1771 13.905V14.3101C17.1771 12.7405 19.5062 12.7405 19.5062 14.3101V15.0189C19.5062 13.4999 21.8352 13.4999 21.8352 15.0189V18.8669C21.8352 24.8415 11 24.0314 11 18.4112V15.6771C11 14.5632 12.5696 14.5126 12.5696 14.5126V11.019C13.1772 11.6266 14.2911 11.5759 14.848 10.9683ZM19.3036 16.5885C19.3036 16.3353 19.658 16.3353 19.658 16.5885V17.8543C19.658 18.715 20.6707 19.1201 21.2783 18.5631C21.4808 18.4112 21.734 18.6644 21.5314 18.8163C20.8226 19.4745 19.658 19.1707 19.3543 18.2087C18.696 19.0188 17.3796 18.7657 17.0758 17.753C16.2657 18.715 14.6961 18.1581 14.6961 16.9429V14.6138C14.6961 14.4113 15.0505 14.4113 15.0505 14.6138V16.9429C15.0505 18.1581 16.9239 18.2087 16.9746 16.9429C16.9746 16.5885 17.0252 16.1834 17.0252 15.829C17.0252 15.5758 17.3796 15.5758 17.3796 15.829C17.3796 15.9303 17.3796 17.348 17.329 17.348C17.3796 18.6138 19.253 18.6644 19.3036 17.3986V16.5885Z" fill="#2F6F97"/>
</svg>
