<svg width="30" height="30" viewBox="0 0 30 30" fill="none" xmlns="http://www.w3.org/2000/svg">
<rect width="30" height="30" rx="15" fill="#43D78B" fill-opacity="0.2"/>
<path d="M19.2103 17.5903C19.3896 18.0764 19.0331 18.798 18.3418 19.3295C18.2986 19.364 18.251 19.3964 18.2035 19.4288C18.1085 19.4937 18.0112 19.5541 17.9162 19.606C17.2032 19.9927 16.4644 20.0338 16.1079 19.6946C16.6934 19.4418 17.2659 19.1264 17.8125 18.7505C18.318 18.4005 18.7868 18.0116 19.2103 17.5903Z" fill="#43D78B"/>
<path d="M13.9968 12.2368C14.0465 12.3081 14.1437 12.3276 14.215 12.2779L15.293 11.5369L15.7726 12.2347L14.6946 12.9757C14.6233 13.0254 14.6039 13.1226 14.6535 13.1939C14.7032 13.2652 14.8005 13.2846 14.8718 13.2349L15.9498 12.4939L16.4294 13.1917L15.3514 13.9328C15.2801 13.9824 15.2606 14.0797 15.3103 14.151C15.36 14.2223 15.4572 14.2417 15.5285 14.192L16.6066 13.451L17.0862 14.1488L16.0081 14.8898C15.9368 14.9395 15.9174 15.0367 15.9671 15.108C16.0168 15.1793 16.114 15.1988 16.1853 15.1491L17.2633 14.408L17.7429 15.1059L16.6692 15.8426C16.5979 15.8922 16.5785 15.9895 16.6282 16.0608C16.6779 16.1321 16.7751 16.1515 16.8464 16.1018L17.9244 15.3608L18.404 16.0564L17.326 16.7975C17.2547 16.8472 17.2352 16.9444 17.2849 17.0157C17.3346 17.087 17.4318 17.1064 17.5031 17.0567L18.5812 16.3157L19.0608 17.0113L18.9592 17.1194C18.929 17.1518 18.9009 17.182 18.8685 17.2144C18.4688 17.6314 18.0173 18.0116 17.5312 18.3443C17.0149 18.7008 16.4597 19.0011 15.8936 19.2322C15.8439 19.2517 15.7942 19.2733 15.7446 19.2906L11.0176 12.4205C11.5447 12.1742 12.1756 11.8048 12.8021 11.3727C13.3919 10.9665 13.932 10.5388 14.3424 10.152L15.1137 11.2733L14.0357 12.0143C13.9644 12.0662 13.9471 12.1634 13.9968 12.2368Z" fill="#43D78B"/>
<path d="M14.4961 9.0135C14.5263 9.05887 14.5177 9.13016 14.4702 9.2209C14.3794 9.40454 14.1439 9.66811 13.8069 9.97272C13.4677 10.2795 13.0248 10.6273 12.5258 10.973C12.0246 11.3165 11.5428 11.606 11.1345 11.8134C10.7305 12.0186 10.3978 12.1439 10.1947 12.1634C10.0932 12.1742 10.024 12.1569 9.99163 12.1137C9.84904 11.9085 10.5706 11.161 11.6422 10.381L10.6117 8.88388C10.1947 9.15177 9.76479 9.39374 9.32406 9.60546L9.31758 9.60978L9 9.14961C9.56603 8.87524 10.1169 8.55334 10.6419 8.19255C11.1583 7.83824 11.6487 7.44504 12.1002 7.0216L12.1218 7L12.4394 7.46017L12.4221 7.47529C12.0635 7.81231 11.6789 8.12773 11.2792 8.42371L12.3097 9.92088C13.4116 9.20794 14.3557 8.81042 14.4961 9.0135Z" fill="#43D78B"/>
<path d="M19.9856 21.7211L20.2492 23L17.8965 19.5779L18.3134 19.2906L19.9856 21.7211Z" fill="#43D78B"/>
</svg>
