<svg width="30" height="30" viewBox="0 0 30 30" fill="none" xmlns="http://www.w3.org/2000/svg">
<rect width="30" height="30" rx="15" fill="#555AD7" fill-opacity="0.2"/>
<path fill-rule="evenodd" clip-rule="evenodd" d="M20.3333 7C18.8669 7 17.6667 8.20023 17.6667 9.66667C17.6667 9.94508 17.7219 10.2086 17.8021 10.4615L13.6979 12.7427C13.0147 11.8484 11.9408 11.2667 10.7333 11.2667C8.67779 11.2667 7 12.9445 7 15C7 17.0556 8.67779 18.7333 10.7333 18.7333C11.9405 18.7333 13.0146 18.1523 13.6979 17.2583L17.8021 19.5385C17.7219 19.7914 17.6667 20.0549 17.6667 20.3333C17.6667 21.7998 18.8669 23 20.3333 23C21.7998 23 23 21.7998 23 20.3333C23 18.8669 21.7998 17.6667 20.3333 17.6667C19.5281 17.6667 18.8119 18.036 18.3219 18.6052L14.2188 16.324C14.3763 15.9116 14.4667 15.4664 14.4667 15C14.4667 14.5324 14.3761 14.0861 14.2177 13.6729L18.3208 11.3938C18.8109 11.9636 19.5275 12.3333 20.3333 12.3333C21.7998 12.3333 23 11.1331 23 9.66667C23 8.20023 21.7998 7 20.3333 7Z" fill="#555AD7"/>
</svg>
